# xmcd
#
# Track frame offsets:
#	150
#	15066
#	27516
#	51592
#	75026
#	88867
#	104885
#	118769
#	138965
#	150171
#	168477
#	179654
#	193650
#
# Disc length: 2837 seconds
#
# Revision: 0
# Processed by: cddbd v1.5.1PL0 Copyright (c) Steve Scherf et al.
# Submitted via: dBpowerAMP V4.0
#
DISCID=a30b130d
DTITLE=Mike and the Blue Family - Tell Me Why
DYEAR=2002
DGENRE=Blues
TTITLE0=Tell Me Why
TTITLE1=Stop Messing
TTITLE2=I Wonder
TTITLE3=This Old '62
TTITLE4=Too Good To Be True
TTITLE5=Can't Fight This Feeling
TTITLE6=Rain Rain Rain
TTITLE7=Won't Do You No Wrong
TTITLE8=Some Kind Of Pain
TTITLE9=New Pair Shoes
TTITLE10=Cold Beer
TTITLE11=Tired Of Waiting
TTITLE12=Hurts Deep Down Inside
EXTD=This is a very special bluesband from Kristiansand in Norway. Why? Because it's two brothers and their two sons who are the bandmembers ... :-]\nHere's their URL: http://www.mbfnett.com/norsk/
EXTT0=
EXTT1=
EXTT2=
EXTT3=
EXTT4=
EXTT5=
EXTT6=
EXTT7=
EXTT8=
EXTT9=
EXTT10=
EXTT11=
EXTT12=
PLAYORDER=
